<svg width="20" height="18" viewBox="0 0 20 18" fill="none" xmlns="http://www.w3.org/2000/svg">
<path d="M9.99936 17.8235C9.62915 17.8235 9.27576 17.7078 8.97707 17.4888C6.94931 16.0055 2.1029 12.3156 0.887088 10.0802C-0.703142 7.15885 0.251837 3.407 3.0116 1.71702C3.90348 1.17159 4.91315 0.882355 5.93964 0.882355C7.47518 0.882355 8.91817 1.50215 9.99936 2.6054C11.0805 1.50215 12.5235 0.882355 14.0591 0.882355C15.0856 0.882355 16.0952 1.17159 16.9871 1.71702C19.7469 3.407 20.7019 7.15885 19.1158 10.0802C17.9 12.3156 13.0536 16.0055 11.0259 17.4888C10.723 17.7078 10.3696 17.8235 9.99936 17.8235Z" fill="#F32C44"/>
</svg>
