<svg width="111" height="33" viewBox="0 0 111 33" fill="none" xmlns="http://www.w3.org/2000/svg">
<path d="M6.02024 0.875118C3.76238 1.82507 1.28024 4.50882 0.496294 7.8775C-0.496507 12.1457 3.635 13.9507 3.97387 13.3588C4.37271 12.6635 3.23355 12.4283 2.99906 10.2137C2.69601 7.35345 4.01897 4.15739 5.68396 2.75505C5.99346 2.49451 5.97873 2.85714 5.97873 3.52789C5.97873 4.72736 5.9128 15.495 5.9128 17.7422C5.9128 20.783 5.78784 21.7432 5.56343 22.6921C5.33604 23.6536 4.97049 24.3033 5.24748 24.5536C5.55696 24.8335 6.87832 24.1676 7.64328 23.0945C8.56058 21.8075 8.88167 20.2618 8.93932 18.5833C9.00895 16.5598 9.00598 13.349 9.00895 11.5176C9.01174 9.83793 9.0371 4.91947 8.97966 1.96267C8.96558 1.23742 6.96449 0.476538 6.02013 0.874236L6.02024 0.875118ZM86.1968 15.1057C86.124 16.6865 85.7759 17.9222 85.3438 18.7937C84.5073 20.481 82.7716 21.0049 82.0346 18.5794C81.633 17.2572 81.6142 15.0491 81.903 13.2041C82.1969 11.3245 83.0176 9.90499 84.3766 10.033C85.717 10.1596 86.3444 11.8956 86.1968 15.1056V15.1057ZM63.5997 24.9135C63.5815 27.5402 63.1702 29.8432 62.2883 30.5121C61.0374 31.4605 59.356 30.7491 59.7042 28.8324C60.0122 27.1363 61.4691 25.4042 63.6032 23.2878C63.6032 23.2878 63.6077 23.7704 63.5998 24.9135H63.5997ZM63.2581 15.0904C63.1816 16.5302 62.8102 17.9766 62.4051 18.7939C61.5688 20.4812 59.8204 21.0087 59.0959 18.5796C58.6005 16.9199 58.7192 14.7719 58.9643 13.4185C59.2823 11.6625 60.0533 10.0334 61.4379 10.0334C62.784 10.0334 63.4478 11.5178 63.2581 15.0905V15.0904ZM50.1675 15.0684C50.0855 16.5933 49.7895 17.868 49.3145 18.7939C48.4552 20.4696 46.7551 21.001 46.0054 18.5796C45.4649 16.8336 45.6489 14.4528 45.8737 13.1667C46.2074 11.2582 47.0429 9.90517 48.3473 10.0334C49.6872 10.165 50.3386 11.8958 50.1675 15.0685V15.0684ZM110.158 16.8496C109.831 16.8496 109.681 17.1889 109.558 17.7601C109.129 19.7462 108.678 20.1947 108.097 20.1947C107.447 20.1947 106.864 19.2113 106.714 17.2426C106.596 15.6946 106.615 12.8446 106.765 10.0097C106.796 9.42723 106.636 8.85092 105.082 8.28337C104.413 8.03925 103.441 7.6798 102.957 8.85428C101.589 12.1724 101.054 14.8067 100.928 15.8768C100.922 15.9322 100.854 15.9435 100.842 15.8141C100.762 14.957 100.583 13.3995 100.56 10.1271C100.556 9.48863 100.421 8.94516 99.7203 8.50023C99.2654 8.21152 97.884 7.7009 97.3865 8.30837C96.9556 8.80519 96.4565 10.1422 95.9379 11.7271C95.5164 13.0152 95.2228 13.8866 95.2228 13.8866C95.2228 13.8866 95.2284 10.411 95.2334 9.0926C95.2356 8.59523 94.8962 8.4295 94.7939 8.39946C94.3332 8.26507 93.4256 8.04057 93.0403 8.04057C92.565 8.04057 92.4486 8.30763 92.4486 8.69676C92.4486 8.74771 92.3736 13.2728 92.3736 16.4369C92.3736 16.5743 92.3736 16.7243 92.375 16.8836C92.112 18.3378 91.2594 20.312 90.3321 20.312C89.4037 20.312 88.9657 19.4866 88.9657 15.7145C88.9657 13.514 89.0315 12.5571 89.0638 10.9655C89.0825 10.0488 89.1187 9.34481 89.1167 9.18505C89.1099 8.69515 88.267 8.44823 87.8749 8.35698C87.4809 8.26496 87.1385 8.22932 86.8711 8.24462C86.4927 8.26608 86.2249 8.51562 86.2249 8.85883C86.2249 9.04284 86.227 9.39277 86.227 9.39277C85.7396 8.62293 84.9557 8.0871 84.4341 7.93183C83.0293 7.51248 81.5633 7.88405 80.4576 9.43925C79.5788 10.6749 79.0491 12.0745 78.8405 14.0852C78.6881 15.5553 78.7379 17.0459 79.0088 18.3066C78.6814 19.7292 78.0737 20.312 77.4082 20.312C76.4422 20.312 75.7418 18.727 75.8231 15.9859C75.8767 14.1829 76.2357 12.9177 76.628 11.0872C76.7953 10.3069 76.6594 9.89835 76.3185 9.5068C76.0058 9.14773 75.3396 8.96427 74.3818 9.18991C73.6997 9.35079 72.7243 9.52378 71.8319 9.65667C71.8319 9.65667 71.8858 9.44074 71.93 9.06002C72.1621 7.06344 70.0036 7.22543 69.3149 7.86315C68.9038 8.24388 68.624 8.69291 68.5177 9.50028C68.3493 10.7815 69.389 11.3858 69.389 11.3858C69.0479 12.9552 68.2118 15.0053 67.3485 16.4875C66.8862 17.2817 66.5325 17.8701 66.0759 18.4957C66.0742 18.2628 66.073 18.0298 66.0721 17.798C66.0617 14.4986 66.1054 11.9018 66.1247 10.9658C66.1434 10.0491 66.18 9.36379 66.178 9.20404C66.1728 8.84571 65.9646 8.7104 65.5316 8.53907C65.1487 8.38753 64.6961 8.28264 64.2265 8.24606C63.6338 8.19959 63.2767 8.51556 63.286 8.88919C63.2878 8.95974 63.2878 9.39291 63.2878 9.39291C62.8004 8.62305 62.0165 8.08724 61.4949 7.93196C60.0901 7.51278 58.6241 7.88437 57.5184 9.43938C56.6398 10.6751 56.0644 12.409 55.9013 14.0701C55.7495 15.6181 55.7775 16.9337 55.9845 18.0419C55.7612 19.1517 55.1189 20.3121 54.3927 20.3121C53.4643 20.3121 52.9361 19.4868 52.9361 15.7147C52.9361 13.5141 53.0018 12.5572 53.0341 10.9658C53.0528 10.0491 53.0891 9.34495 53.087 9.18538C53.0802 8.69547 52.2373 8.44856 51.8452 8.35711C51.4348 8.26174 51.0806 8.22666 50.8085 8.2468C50.4496 8.27368 50.1973 8.59675 50.1973 8.83769V9.39291C49.7099 8.62305 48.926 8.08724 48.4044 7.93196C46.9995 7.51278 45.5418 7.89035 44.4279 9.43938C43.7015 10.4494 43.1135 11.5692 42.8108 14.048C42.7234 14.7644 42.6847 15.4352 42.6897 16.0622C42.4001 17.8427 41.1208 19.8948 40.0743 19.8948C39.4619 19.8948 38.8787 18.701 38.8787 16.1566C38.8787 12.7674 39.0874 7.94185 39.1227 7.47678C39.1227 7.47678 40.4449 7.45419 40.701 7.4512C41.3605 7.44392 41.9578 7.4596 42.8362 7.41443C43.2769 7.39185 43.7013 5.8025 43.2466 5.6058C43.0405 5.51678 41.5838 5.43877 41.0064 5.42645C40.5208 5.41539 39.1691 5.31484 39.1691 5.31484C39.1691 5.31484 39.2904 2.11188 39.3186 1.77353C39.3425 1.49152 38.9795 1.34633 38.7714 1.25823C38.2652 1.04305 37.8124 0.940022 37.2756 0.828792C36.5339 0.675016 36.1975 0.825433 36.1318 1.45456C36.0328 2.40938 35.9815 5.20603 35.9815 5.20603C35.4373 5.20603 33.5783 5.0991 33.0339 5.0991C32.5281 5.0991 31.9822 7.28548 32.6815 7.31235C33.486 7.34371 34.8881 7.37077 35.8176 7.39895C35.8176 7.39895 35.7762 12.304 35.7762 13.8183C35.7762 13.9794 35.7776 14.1346 35.7779 14.2851C35.2663 16.9651 33.4645 18.4128 33.4645 18.4128C33.8515 16.6398 33.061 15.3084 31.6372 14.1813C31.1127 13.766 30.0772 12.9797 28.9185 12.1181C28.9185 12.1181 29.5896 11.4533 30.1847 10.116C30.6063 9.16862 30.6245 8.08447 29.5896 7.84541C27.8795 7.45012 26.4694 8.71248 26.0489 10.0602C25.723 11.1042 25.8968 11.8789 26.5352 12.6836C26.5818 12.7424 26.6323 12.8025 26.6844 12.863C26.2984 13.6108 25.7681 14.6177 25.319 15.3985C24.0723 17.5664 23.1306 19.2812 22.4189 19.2812C21.8499 19.2812 21.8575 17.5403 21.8575 15.9103C21.8575 14.5051 21.9608 12.3925 22.0432 10.2052C22.0705 9.48178 21.7107 9.06969 21.1074 8.69644C20.7409 8.46968 19.9586 8.02382 19.5056 8.02382C18.8274 8.02382 16.871 8.11657 15.0223 13.4914C14.7894 14.1688 14.3317 15.4032 14.3317 15.4032L14.3711 8.9398C14.3711 8.78827 14.2908 8.64176 14.1069 8.54153C13.7954 8.37151 12.9634 8.02382 12.2236 8.02382C11.8711 8.02382 11.6952 8.18862 11.6952 8.51709L11.6307 18.6291C11.6307 19.3974 11.6506 20.2938 11.7262 20.6858C11.8015 21.0783 11.9235 21.3976 12.0745 21.5876C12.2254 21.7772 12.3999 21.9219 12.6876 21.9816C12.9554 22.037 14.4218 22.2262 14.498 21.663C14.5893 20.988 14.5928 20.2579 15.3628 17.5349C16.5615 13.2956 18.1244 11.2271 18.8591 10.4926C18.9876 10.3642 19.1343 10.3565 19.1272 10.5667C19.0958 11.4961 18.9855 13.8185 18.9113 15.7916C18.7123 21.0717 19.6679 22.0504 21.0336 22.0504C22.0784 22.0504 23.5512 21.007 25.13 18.3656C26.1143 16.7195 27.07 15.1055 27.7566 13.9423C28.2351 14.3875 28.7721 14.8667 29.3087 15.3786C30.5557 16.5682 30.9652 17.6986 30.6935 18.771C30.4858 19.5908 29.7033 20.4356 28.3107 19.6145C27.9048 19.3749 27.7316 19.1898 27.3235 18.9197C27.1042 18.7746 26.7694 18.7312 26.5687 18.8832C26.0473 19.2784 25.7491 19.781 25.5788 20.4032C25.4132 21.0086 26.0165 21.3287 26.6418 21.6086C27.1803 21.8496 28.3376 22.0679 29.0757 22.0928C31.9515 22.1894 34.2552 20.6971 35.8589 16.8477C36.146 20.1722 37.3677 22.0534 39.4904 22.0534C40.9096 22.0534 42.3324 20.2096 42.9546 18.3958C43.1332 19.1352 43.3977 19.7781 43.7391 20.3218C45.3748 22.9266 48.5478 22.366 50.1417 20.1541C50.6345 19.4706 50.7095 19.225 50.7095 19.225C50.942 21.3136 52.6153 22.0433 53.5734 22.0433C54.6464 22.0433 55.7544 21.5335 56.5309 19.7763C56.6219 19.967 56.7212 20.1491 56.8296 20.3218C58.4653 22.9266 61.6383 22.3659 63.2322 20.154C63.3074 20.0503 63.3726 19.9562 63.4296 19.8717L63.4764 21.2436C63.4764 21.2436 62.5671 22.082 62.009 22.5963C59.5524 24.8616 57.6845 26.5803 57.5471 28.5817C57.3707 31.1337 59.4299 32.0821 60.9877 32.2064C62.6421 32.3384 64.0588 31.4198 64.9297 30.1343C65.6956 29.0028 66.1969 26.5674 66.1602 24.1621C66.1455 23.1989 66.1214 21.9742 66.1024 20.6615C66.9658 19.6537 67.9386 18.3799 68.8343 16.8889C69.8104 15.2641 70.8565 13.082 71.3922 11.3839C71.3922 11.3839 72.3011 11.3917 73.2711 11.3279C73.5814 11.3075 73.6705 11.3712 73.6131 11.5998C73.5439 11.876 72.3877 16.3585 73.4429 19.3446C74.1651 21.3888 75.7934 22.0464 76.7587 22.0464C77.8887 22.0464 78.9698 21.1887 79.5491 19.9149C79.6189 20.0569 79.6919 20.1944 79.7715 20.3212C81.4072 22.926 84.5691 22.362 86.1741 20.1535C86.5363 19.6552 86.7419 19.2244 86.7419 19.2244C87.0863 21.386 88.7587 22.0537 89.7166 22.0537C90.7145 22.0537 91.6614 21.6426 92.4298 19.8153C92.4619 20.6198 92.5124 21.2777 92.5923 21.4851C92.6409 21.612 92.9244 21.7712 93.1307 21.8481C94.0435 22.1883 94.9745 22.0274 95.3189 21.9574C95.5575 21.9089 95.7436 21.7165 95.769 21.2197C95.8359 19.9151 95.7948 17.7233 96.1883 16.0944C96.8488 13.3607 97.4648 12.3002 97.7571 11.7752C97.9207 11.4811 98.1052 11.4326 98.1119 11.7439C98.1257 12.3738 98.1569 14.2235 98.4127 16.7086C98.6006 18.5364 98.8517 19.6167 99.0446 19.9586C99.5951 20.9364 100.275 20.9827 100.829 20.9827C101.181 20.9827 101.918 20.8848 101.852 20.2626C101.82 19.9593 101.876 18.085 102.527 15.3917C102.952 13.633 103.661 12.0438 103.917 11.4628C104.011 11.2485 104.055 11.4174 104.053 11.4503C104 12.6616 103.879 16.6234 104.37 18.7902C105.035 21.7255 106.96 22.054 107.631 22.054C109.063 22.054 110.235 20.959 110.629 18.0778C110.724 17.3844 110.583 16.849 110.162 16.849" fill="#262626"/>
</svg>
