<svg width="20" height="20" viewBox="0 0 20 20" fill="none" xmlns="http://www.w3.org/2000/svg">
<path fill-rule="evenodd" clip-rule="evenodd" d="M18.3974 3.30305C18.2212 2.99346 17.8897 2.81436 17.5415 2.81436L2.46486 2.82532C2.04498 2.82535 1.68097 3.08466 1.53545 3.47105L1.53531 3.47141C1.43055 3.75077 1.45404 4.05554 1.59788 4.30726L1.59989 4.31077L1.602 4.31423C1.65613 4.40281 1.72487 4.48625 1.80814 4.55972L7.54683 9.50848L8.94558 16.9384L8.94567 16.9389C9.0221 17.3505 9.34077 17.6571 9.75385 17.7226C10.1627 17.788 10.5652 17.5954 10.7753 17.2403L10.7756 17.2397L18.3921 4.29234L18.223 3.99845C18.223 3.99833 18.2231 3.99821 18.2231 3.99809L18.3923 4.292C18.5737 3.98433 18.5748 3.60838 18.3974 3.30305ZM17.7115 3.10958L17.5415 2.81436L17.7114 3.10955C17.7114 3.10956 17.7115 3.10957 17.7115 3.10958ZM8.40919 8.06679L4.23169 4.46064H14.7285L8.40919 8.06679ZM10.2423 14.8968L9.224 9.48657L15.5557 5.87558L10.2423 14.8968Z" fill="#333333"/>
</svg>
